<svg xmlns="http://www.w3.org/2000/svg" width="706.79883" height="232.92593">
 <metadata id="metadata8">image/svg+xml</metadata>

 <g>
  <title>background</title>
  <rect fill="none" id="canvas_background" height="402" width="582" y="-1" x="-1"/>
 </g>
 <g>
  <title>Layer 1</title>
  <metadata id="svg_21">image/svg+xml</metadata>

  <g stroke="null" id="svg_23">
   <g stroke="null" transform="matrix(3.66398 0 0 -3.63425 -3002.03 -770.969)" id="svg_13">
    <g stroke="null" transform="translate(0 -263.442) scale(0.1 0.1)" id="svg_14">
     <path fill="#000000" fill-rule="nonzero" id="svg_20" d="m9168.59668,316.589996l57.728516,0l28.230469,-233.281403l1.280273,0l116.749023,233.281403l61.580078,0l16.040039,-237.941605l1.280273,0l128.94043,237.941605l51.319336,0l-168.069336,-309.089996l-62.230469,0l-15.389648,233.281006l-1.280273,0l-116.75,-233.281006l-62.230469,0l-37.198242,309.089996"/>
     <path fill="#000000" fill-rule="nonzero" id="svg_19" d="m8207.077148,71.648399c34,-15.738201 69.917969,-29.160099 107.769531,-29.160099c26.9375,0 55.167969,11.660099 55.167969,39.070301c0,50.742393 -112.257813,85.7304 -112.257813,158.050392c0,32.660995 31.429688,83.981003 116.75,83.981003c33.359375,0 65.429688,-6.421997 95.579102,-18.078003l-10.258789,-47.242004c-28.871094,12.832001 -56.453125,23.332001 -88.53125,23.332001c-25.660156,0 -51.960938,-9.921997 -51.960938,-36.742996c0,-43.738007 112.261719,-83.39801 112.261719,-158.628494c0,-61.820299 -63.511719,-85.730499 -122.519531,-85.730499c-41.703125,0 -74.410156,8.75 -112.261719,23.3281l10.261719,47.820299"/>
     <path fill="#000000" fill-rule="nonzero" id="svg_18" d="m8558.874023,190.039001l3.851563,0c34.640625,52.492004 97.5,133.550995 171.910156,133.550995c40.417969,0 56.460938,-25.078003 56.460938,-58.898987c0,-14.582016 -1.929688,-28.582016 -5.140625,-42.582016l-46.820313,-214.608994l-61.589844,0l46.828125,216.358994c1.28125,7 1.28125,14 1.28125,21.582001c0,11.078995 -3.199219,23.910995 -17.319336,23.910995c-47.469727,0 -132.141602,-117.800995 -161.649414,-152.792999l-23.730469,-109.05899l-62.230469,0l68,309.089996l61.578125,0l-31.429688,-126.55101"/>
     <path fill="#000000" fill-rule="nonzero" id="svg_17" d="m8813.28418,105.480003c0,76.98101 57.730469,218.109993 204.632813,218.109993c72.488281,0 112.257813,-40.237976 112.257813,-104.981003c0,-74.639999 -62.871094,-218.108994 -205.277344,-218.108994c-71.84375,0 -111.613281,40.2383 -111.613281,104.980003zm124.441406,-62.987804c83.398438,0 127.019531,99.136799 127.019531,163.288807c0,39.077988 -12.191406,75.820984 -62.230469,75.820984c-80.820313,0 -123.801758,-101.480988 -123.801758,-163.292992c0,-36.160599 11.543945,-75.816799 59.012695,-75.816799"/>
     <path fill="#006ec7" fill-rule="nonzero" id="svg_16" d="m9591.725586,286.640991l0,-25l71.459961,0.006989l-30.299805,-51.717987l21.55957,-12.641006l37.719727,64.358994l152.640625,0l-30.820313,-53.377975l-73.669922,0.179001l-0.070313,-25l59.330078,-0.14801l-31.019531,-53.719009l-74.44043,0.027008l-0.009766,-25l60.030273,-0.027l-26.110352,-45.222603l21.650391,-12.5l26.129883,45.261703l30.069336,-52.039104l21.650391,12.5l-37.290039,64.527004l76.280273,132.153l31,-53.680008l-36.589844,-64.022995l21.709961,-12.411003l29.349609,51.372002l30.790039,-53.329002l-37.25,-64.460495l21.639648,-12.511703l30.040039,51.9804l26.110352,-45.218697l21.650391,12.5l-26.129883,45.249496l60.109375,0.032005l-0.009766,25l-74.530273,-0.042999l-76.299805,132.151978l61.669922,0l36.919922,-63.80098l21.629883,12.520004l-29.669922,51.280975l61.950195,0l37.200195,-64.491989l21.660156,12.492004l-30,52.000015l52.219727,0l0,25l-52.259766,0l30.029297,52.069977l-21.649414,12.489014l-37.230469,-64.55899l-152.599609,0l30.839844,53.409973l73.709961,0.071014l-0.030273,24.988007l-59.239258,-0.050995l30.989258,53.679993l74.480469,0.221985l-0.080078,25l-59.950195,-0.178986l26.070313,45.135986l-21.650391,12.5l-26.129883,-45.25l-30.070313,52.042999l-21.649414,-12.510986l37.290039,-64.519989l-76.290039,-132.14801l-30.830078,53.410004l36.790039,63.859009l-21.660156,12.480988l-29.580078,-51.332001l-30.990234,53.671997l37.049805,64.617004l-21.689453,12.429016l-29.820313,-52.007019l-26.05957,45.14801l-21.650391,-12.5l26.129883,-45.25l-60.109375,-0.027008l0.009766,-25l74.530273,0.027008l76.299805,-132.141022l-61.669922,0l-36.919922,63.801025l-21.640625,-12.519012l29.669922,-51.282013l-61.969727,0l-37.439453,64.382996l-21.610352,-12.561981l30.129883,-51.821014l-71.509766,-0.006989"/>
     <path stroke="#006ec7" fill="none" stroke-width="0.014" stroke-miterlimit="4" id="svg_15" d="m9591.725586,286.640991l0,-25l71.459961,0.006989l-30.299805,-51.717987l21.55957,-12.641006l37.719727,64.358994l152.640625,0l-30.820313,-53.377975l-73.669922,0.179001l-0.070313,-25l59.330078,-0.14801l-31.019531,-53.719009l-74.44043,0.027008l-0.009766,-25l60.030273,-0.027l-26.110352,-45.222603l21.650391,-12.5l26.129883,45.261703l30.069336,-52.039104l21.650391,12.5l-37.290039,64.527004l76.280273,132.153l31,-53.680008l-36.589844,-64.022995l21.709961,-12.411003l29.349609,51.372002l30.790039,-53.329002l-37.25,-64.460495l21.639648,-12.511703l30.040039,51.9804l26.110352,-45.218697l21.650391,12.5l-26.129883,45.249496l60.109375,0.032005l-0.009766,25l-74.530273,-0.042999l-76.299805,132.151978l61.669922,0l36.919922,-63.80098l21.629883,12.520004l-29.669922,51.280975l61.950195,0l37.200195,-64.491989l21.660156,12.492004l-30,52.000015l52.219727,0l0,25l-52.259766,0l30.029297,52.069977l-21.649414,12.489014l-37.230469,-64.55899l-152.599609,0l30.839844,53.409973l73.709961,0.071014l-0.030273,24.988007l-59.239258,-0.050995l30.989258,53.679993l74.480469,0.221985l-0.080078,25l-59.950195,-0.178986l26.070313,45.135986l-21.650391,12.5l-26.129883,-45.25l-30.070313,52.042999l-21.649414,-12.510986l37.290039,-64.519989l-76.290039,-132.14801l-30.830078,53.410004l36.790039,63.859009l-21.660156,12.480988l-29.580078,-51.332001l-30.990234,53.671997l37.049805,64.617004l-21.689453,12.429016l-29.820313,-52.007019l-26.05957,45.14801l-21.650391,-12.5l26.129883,-45.25l-60.109375,-0.027008l0.009766,-25l74.530273,0.027008l76.299805,-132.141022l-61.669922,0l-36.919922,63.801025l-21.640625,-12.519012l29.669922,-51.282013l-61.969727,0l-37.439453,64.382996l-21.610352,-12.561981l30.129883,-51.821014l-71.509766,-0.006989z"/>
    </g>
   </g>
  </g>
 </g>
</svg>
